<svg height="260pt" viewBox="0.00 0.00 102.00 260.00" width="102pt" xmlns="http://www.w3.org/2000/svg" xmlns:xlink="http://www.w3.org/1999/xlink">
<g class="graph" id="graph0" transform="scale(1 1) rotate(0) translate(4 256)">
<title>G</title>
<polygon fill="white" points="-4,4 -4,-256 98,-256 98,4 -4,4" stroke="none"/>
<!-- exog -->
<g class="node" id="node1"><title>exog</title>
<ellipse cx="47" cy="-234" fill="none" rx="27.4223" ry="18" stroke="black"/>
<text font-family="Times,serif" font-size="14.00" text-anchor="middle" x="47" y="-230.3">exog</text>
</g>
<!-- dense1 -->
<g class="node" id="node2"><title>dense1</title>
<ellipse cx="47" cy="-162" fill="none" rx="35.1455" ry="18" stroke="black"/>
<text font-family="Times,serif" font-size="14.00" text-anchor="middle" x="47" y="-158.3">dense1</text>
</g>
<!-- exog&#45;&gt;dense1 -->
<g class="edge" id="edge1"><title>exog-&gt;dense1</title>
<path d="M47,-215.697C47,-207.983 47,-198.712 47,-190.112" fill="none" stroke="black"/>
<polygon fill="black" points="50.5001,-190.104 47,-180.104 43.5001,-190.104 50.5001,-190.104" stroke="black"/>
</g>
<!-- last_dense -->
<g class="node" id="node3"><title>last_dense</title>
<ellipse cx="47" cy="-90" fill="none" rx="47.169" ry="18" stroke="black"/>
<text font-family="Times,serif" font-size="14.00" text-anchor="middle" x="47" y="-86.3">last_dense</text>
</g>
<!-- dense1&#45;&gt;last_dense -->
<g class="edge" id="edge2"><title>dense1-&gt;last_dense</title>
<path d="M47,-143.697C47,-135.983 47,-126.712 47,-118.112" fill="none" stroke="black"/>
<polygon fill="black" points="50.5001,-118.104 47,-108.104 43.5001,-118.104 50.5001,-118.104" stroke="black"/>
</g>
<!-- output -->
<g class="node" id="node4"><title>output</title>
<ellipse cx="47" cy="-18" fill="none" rx="33.2209" ry="18" stroke="black"/>
<text font-family="Times,serif" font-size="14.00" text-anchor="middle" x="47" y="-14.3">output</text>
</g>
<!-- last_dense&#45;&gt;output -->
<g class="edge" id="edge3"><title>last_dense-&gt;output</title>
<path d="M47,-71.6966C47,-63.9827 47,-54.7125 47,-46.1124" fill="none" stroke="black"/>
<polygon fill="black" points="50.5001,-46.1043 47,-36.1043 43.5001,-46.1044 50.5001,-46.1043" stroke="black"/>
</g>
</g>
</svg>